<svg class="vL6BBg" viewBox="0 0 134.5 135" xmlns="http://www.w3.org/2000/svg">
<path class="SQ2ADw _682gpw" d="M132,1.7C132.1,2.7 132.1,3.5 132.2,4.3C132.39999999999998,7 132.5,9.8 132.7,12.5C132.7,16.4 133.7,93.3 134.2,97.2C134.7,103.10000000000001 134.39999999999998,109.10000000000001 134.39999999999998,115C134.39999999999998,120.2 134.49999999999997,125 134.59999999999997,130.1C134.59999999999997,131.79999999999998 134.59999999999997,132.9 134.59999999999997,134.79999999999998C132.79999999999995,134.79999999999998 131.19999999999996,134.89999999999998 129.59999999999997,134.79999999999998C123.09999999999997,134.39999999999998 116.49999999999997,134.89999999999998 109.99999999999997,134.49999999999997C106.09999999999997,134.19999999999996 102.29999999999997,134.39999999999998 98.39999999999998,134.19999999999996C96.59999999999998,134.09999999999997 94.79999999999998,133.99999999999997 92.99999999999997,133.89999999999995C91.89999999999998,133.89999999999995 90.89999999999998,133.99999999999994 89.79999999999997,133.99999999999994C86.99999999999997,133.89999999999995 79.29999999999997,133.99999999999994 76.49999999999997,133.89999999999995C74.49999999999997,133.79999999999995 34.49999999999997,134.49999999999994 32.49999999999997,134.39999999999995C31.99999999999997,134.39999999999995 31.39999999999997,134.49999999999994 30.89999999999997,134.49999999999994C29.699999999999967,134.49999999999994 28.599999999999966,134.59999999999994 27.39999999999997,134.59999999999994C24.39999999999997,134.59999999999994 21.49999999999997,134.49999999999994 18.49999999999997,134.39999999999995C16.69999999999997,134.29999999999995 14.899999999999972,134.19999999999996 13.19999999999997,134.09999999999994C9.999999999999972,133.99999999999994 6.7999999999999705,133.89999999999995 3.4999999999999716,133.89999999999995C2.6999999999999718,133.89999999999995 1.9999999999999716,133.89999999999995 1.1999999999999718,133.79999999999995C0.4999999999999718,133.69999999999996 0.09999999999997167,133.19999999999996 0.29999999999997173,132.49999999999994C0.9999999999999717,129.99999999999994 0.6999999999999718,127.49999999999994 0.5999999999999717,124.89999999999995C0.4999999999999717,119.59999999999995 0.19999999999997164,114.39999999999995 0.2999999999999717,109.09999999999995C0.09999999999997167,102.49999999999996 -0.3000000000000283,20.799999999999955 0.2999999999999717,14.099999999999952C0.3999999999999717,12.799999999999951 0.2999999999999717,11.399999999999952 0.3999999999999717,10.099999999999952C0.5,8 0.7,5.7 0.8,3.5C0.8,3.3 0.9,3.1 1,3C2.7,2.8 4.3,2.4 5.9,2.3C8.600000000000001,1.9999999999999998 11.3,1.7999999999999998 14.1,1.5999999999999999C16,1.4 17.9,1.2999999999999998 19.7,1.0999999999999999C21.5,0.8999999999999999 23.4,0.6999999999999998 25.199999999999996,0.6999999999999998C27.199999999999996,0.5999999999999999 29.199999999999996,0.7999999999999998 31.199999999999996,0.6999999999999998C33.7,0.6999999999999998 79,0.49999999999999983 81.5,0.39999999999999986C83.9,0.2999999999999998 86.3,0.19999999999999984 88.8,0.19999999999999984C92.9,0.1 96.9,0 101,0C102.7,0 104.5,0.2 106.2,0.2C110.9,0.30000000000000004 115.7,0.4 120.4,0.6000000000000001C122.9,0.7000000000000001 125.4,1 127.9,1.3C128.5,1.3 129.1,1.3 129.6,1.3C130.5,1.4 131.2,1.6 132,1.7zM132.8,133.5C132.9,132.2 133,131.2 133,130.2C132.9,124.49999999999999 132.8,119.19999999999999 132.8,113.49999999999999C132.8,110.89999999999999 133,108.29999999999998 132.9,105.69999999999999C132.9,103.29999999999998 132.8,100.79999999999998 132.70000000000002,98.39999999999999C132.3,94.69999999999999 131.4,18.099999999999994 131.4,14.399999999999991C131.20000000000002,11.299999999999992 131,8.09999999999999 130.8,4.999999999999991C130.70000000000002,3.499999999999991 130.60000000000002,3.399999999999991 129.3,3.299999999999991C129,3.299999999999991 128.8,3.299999999999991 128.5,3.199999999999991C126,2.899999999999991 123.4,2.499999999999991 120.9,2.3999999999999906C114.80000000000001,2.0999999999999908 108.60000000000001,1.9999999999999907 102.5,1.7999999999999905C101.6,1.7999999999999905 100.6,1.7999999999999905 99.7,1.7999999999999905C98.2,1.7999999999999905 96.7,1.7999999999999905 95.3,1.7999999999999905C92.1,1.7999999999999905 88.89999999999999,1.7999999999999905 85.8,1.8999999999999906C83.1,2 37.6,2.3 34.9,2.3C30.5,2.3 26.099999999999994,2.0999999999999996 21.699999999999996,2.5999999999999996C19.4,2.9 17.2,2.9 15,3C11.2,3.3 7.4,3.6 3.6,4C2.6,4 2.4000000000000004,4.2 2.3,5.4C2.2,7.2 2.2,9 2.1,10.8C2,13.8 1.8,16.700000000000003 1.7000000000000002,19.700000000000003C1.3000000000000003,22.900000000000002 1.8000000000000003,101.10000000000001 2,104.3C2,107.7 2,111.2 2.1,114.6C2.1,117.1 2.3000000000000003,119.6 2.3000000000000003,122.1C2.3000000000000003,124.8 2.3000000000000003,127.5 2.2,130.2C2.2,130.5 2.2,130.7 2.2,131C2.2,131.8 2.5,132.1 3.2,132.1C4.5,132.1 5.9,132.2 7.2,132.2C9.1,132.2 11.1,132 13,132.2C16.1,132.5 19.2,132.7 22.299999999999997,132.6C24.299999999999997,132.5 26.199999999999996,132.7 28.200000000000003,132.7C31.1,132.7 34,132.6 36.900000000000006,132.7C41.2,132.79999999999998 88.4,132 92.80000000000001,132.2C94.70000000000002,132.29999999999998 96.60000000000001,132.39999999999998 98.4,132.39999999999998C101.7,132.59999999999997 104.9,132.29999999999998 108.2,132.59999999999997C110.9,132.79999999999995 113.60000000000001,132.79999999999995 116.3,132.99999999999997C120.3,133.29999999999998 124.3,133.49999999999997 128.3,133.59999999999997C129.8,133.6 131.2,133.5 132.8,133.5z" fill="#000000" style="touch-action: manipulation;"></path>
</svg>